<svg width="18" height="18" viewBox="0 0 18 18" fill="none" xmlns="http://www.w3.org/2000/svg">
<path d="M8.77893 17.3201C11.1549 17.3201 13.219 16.4669 14.907 14.779C16.595 13.091 17.4481 11.0361 17.4481 8.65087C17.4481 6.27486 16.595 4.21076 14.907 2.52279C13.219 0.853161 11.1549 0 8.77893 0C6.40292 0 4.33882 0.853161 2.65085 2.54114C0.962872 4.21994 0.109711 6.28404 0.109711 8.66004C0.109711 11.0361 0.962872 13.1002 2.65085 14.7881C4.33882 16.4669 6.39375 17.3201 8.77893 17.3201ZM4.14617 4.02729C5.43967 2.73378 6.95335 2.10997 8.77893 2.10997C10.6045 2.10997 12.1182 2.73378 13.4117 4.02729C14.7052 5.32079 15.329 6.83446 15.329 8.66004C15.329 10.4856 14.7052 11.9993 13.4117 13.2928C12.1182 14.5863 10.6045 15.2101 8.77893 15.2101C6.95335 15.2101 5.43967 14.5771 4.14617 13.2928C2.85267 11.9993 2.22885 10.4856 2.22885 8.66004C2.21968 6.83446 2.85267 5.32079 4.14617 4.02729Z" fill="#06BAE8"/>
</svg>
