<svg width="30" height="19" viewBox="0 0 30 19" fill="none" xmlns="http://www.w3.org/2000/svg">
<path d="M29.934 10.6589C29.8882 9.96173 29.7872 9.19113 29.6405 8.38384C29.4937 7.56737 29.3102 6.80595 29.0809 6.09957C28.8515 5.37484 28.5304 4.65929 28.1451 3.97125C27.7415 3.2557 27.2645 2.64106 26.7324 2.12732C26.1728 1.59525 25.4847 1.16408 24.6958 0.852169C23.9069 0.54026 23.0353 0.384308 22.0996 0.384308C21.7327 0.384308 21.3749 0.531088 20.696 0.980603C20.274 1.25582 19.7787 1.5769 19.2282 1.9255C18.7604 2.22824 18.1182 2.50345 17.3293 2.76032C16.5587 3.00801 15.7789 3.13644 15.0083 3.13644C14.2377 3.13644 13.4579 3.00801 12.6873 2.76032C11.8984 2.50345 11.2654 2.22824 10.7884 1.9255C10.2379 1.5769 9.75172 1.25582 9.32055 0.980603C8.63252 0.531088 8.28392 0.384308 7.91697 0.384308C6.98124 0.384308 6.10973 0.54026 5.32079 0.852169C4.53185 1.16408 3.84381 1.59525 3.28421 2.12732C2.75213 2.64106 2.2751 3.2557 1.87145 3.97125C1.4678 4.65011 1.1559 5.37484 0.917377 6.09957C0.697207 6.80595 0.504558 7.56737 0.357777 8.38384C0.210997 9.19113 0.119259 9.95255 0.0642164 10.6589C0.0275213 11.347 0 12.0533 0 12.7781C0 14.6587 0.596295 16.1724 1.77054 17.3007C2.93561 18.4108 4.46763 18.9704 6.33908 18.9704H23.6592C25.5306 18.9704 27.0626 18.4108 28.2277 17.3007C29.4019 16.1815 29.9982 14.6587 29.9982 12.7781C30.0074 12.0533 29.9799 11.3378 29.934 10.6589ZM26.7782 15.7687C26.0077 16.5026 24.9894 16.8512 23.6592 16.8512H6.34825C5.01805 16.8512 3.99977 16.4935 3.22917 15.7687C2.47692 15.0532 2.10997 14.0716 2.10997 12.7781C2.10997 12.1084 2.12832 11.4387 2.17418 10.7965C2.22005 10.1727 2.30262 9.48469 2.44022 8.75079C2.56866 8.02606 2.73378 7.3472 2.93561 6.73256C3.12826 6.14544 3.38512 5.55832 3.69703 4.99871C3.99977 4.46664 4.34837 4.00795 4.73367 3.63182C5.09144 3.28322 5.55013 2.99883 6.09139 2.78784C6.58677 2.59519 7.14637 2.4851 7.75184 2.46675C7.82523 2.50345 7.95366 2.57684 8.17383 2.72362C8.605 3.00801 9.10956 3.32909 9.65998 3.67769C10.2838 4.07217 11.0819 4.42994 12.0452 4.74185C13.0268 5.06293 14.0267 5.21889 15.0175 5.21889C16.0082 5.21889 17.0082 5.05376 17.9898 4.74185C18.953 4.42994 19.7511 4.07217 20.375 3.67769C20.9437 3.31992 21.4208 3.00801 21.8611 2.72362C22.0721 2.58601 22.2097 2.51262 22.2831 2.46675C22.8886 2.4851 23.4482 2.59519 23.9436 2.78784C24.4848 2.99883 24.9343 3.28322 25.3013 3.63182C25.6866 3.99877 26.0352 4.45746 26.3379 4.99871C26.659 5.55832 26.9159 6.14544 27.0993 6.73256C27.292 7.3472 27.4571 8.02606 27.5947 8.75079C27.7231 9.48469 27.8149 10.1727 27.8608 10.7965C27.9066 11.4295 27.925 12.0992 27.925 12.7781C27.8974 14.0716 27.5305 15.0532 26.7782 15.7687Z" fill="#06BAE8"/>
</svg>
